#!OML:ASF F:\VICON\USERDATA\INSTALL\rory3\rory3.ASF
:FULLY-SPECIFIED
:DEGREES
151
root 1.26922 17.6753 -16.7298 7.90846 -1.38998 -1.21455
lowerback 8.42914 -0.463737 0.195759
upperback 0.732747 -0.485031 2.717
thorax -3.94656 -0.223245 2.76751
lowerneck -18.5807 -3.66654 -8.7157
upperneck 11.7209 -3.5726 5.3971
head 6.86811 -1.64089 2.76565
rclavicle -3.77691e-015 9.54166e-015
rhumerus -30.7754 -4.81927 -81.5486
rradius 37.5011
rwrist 2.88029
rhand -10.781 11.9783
rfingers 7.12502
rthumb 15.2315 -17.4409
lclavicle -3.77691e-015 9.54166e-015
lhumerus -27.7545 4.3476 87.304
lradius 31.2095
lwrist -7.14306
lhand -17.3769 25.5817
lfingers 7.12502
lthumb 8.87164 55.3752
rfemur -14.5607 4.8861 21.3046
rtibia 25.9451
rfoot -12.6294 -10.177
rtoes -0.492826
lfemur -15.4722 -2.34271 -19.5593
ltibia 27.4023
lfoot -16.0197 4.91202
ltoes 2.10882
152
root 1.26944 17.6498 -16.7466 7.94077 -1.31093 -1.38435
lowerback 8.72615 -0.516842 0.342913
upperback 0.697617 -0.53062 2.81863
thorax -4.14771 -0.245978 2.80135
lowerneck -18.5723 -3.6681 -8.85395
upperneck 11.7495 -3.54611 5.43202
head 6.8774 -1.63186 2.80274
rclavicle -2.18663e-015 -3.18055e-014
rhumerus -30.8411 -4.54214 -81.524
rradius 37.8573
rwrist 3.13734
rhand -11.5041 13.2529
rfingers 7.12502
rthumb 14.5349 -16.218
lclavicle -2.18663e-015 -3.18055e-014
lhumerus -27.979 4.34195 87.3472
lradius 31.4992
lwrist -6.97459
lhand -19.6436 21.514
lfingers 7.12502
lthumb 6.68387 51.3885
rfemur -15.0446 4.71851 21.5038
rtibia 26.6955
rfoot -12.9216 -10.107
rtoes -0.244499
lfemur -16.1145 -2.24304 -19.3582
ltibia 28.3815
lfoot -16.4154 4.81538
ltoes 1.95332
153
root 1.27358 17.6188 -16.7614 7.84232 -1.27717 -1.51436
lowerback 9.01095 -0.588841 0.480879
upperback 0.793569 -0.605688 2.89789
thorax -4.20433 -0.285104 2.81913
lowerneck -18.1974 -3.6474 -9.0342
upperneck 11.2303 -3.51422 5.57014
head 6.65056 -1.61327 2.88136
rclavicle 6.95746e-015 1.51076e-014
rhumerus -30.7154 -4.31916 -81.4524
rradius 38.2354
rwrist 4.03061
rhand -11.7247 13.097
rfingers 7.12502
rthumb 14.3223 -16.389
lclavicle 6.95746e-015 1.51076e-014
lhumerus -28.0919 4.39474 87.349
lradius 31.9649
lwrist -6.89914
lhand -20.9233 19.7668
lfingers 7.12502
lthumb 5.4484 49.6768
rfemur -15.4362 4.39419 21.6534
rtibia 27.5633
rfoot -13.3469 -9.92032
rtoes -0.590929
lfemur -16.6285 -2.12148 -19.2343
ltibia 29.4291
lfoot -16.7856 4.73005
ltoes 2.12004
154
root 1.27896 17.5849 -16.7787 7.71785 -1.26439 -1.72056
lowerback 9.36662 -0.58459 0.776139
upperback 0.948318 -0.566123 2.88797
thorax -4.2466 -0.271213 2.64112
lowerneck -18.0706 -3.68976 -8.95533
upperneck 10.6837 -3.60337 5.67406
head 6.46038 -1.64089 2.89131
rclavicle -7.7526e-015 -1.43125e-014
rhumerus -30.5584 -4.0093 -81.7164
rradius 38.2124
rwrist 2.43392
rhand -10.6739 10.5989
rfingers 7.12502
rthumb 15.3346 -18.8125
lclavicle -7.7526e-015 -1.43125e-014
lhumerus -27.9657 3.99832 87.3408
lradius 32.288
lwrist -6.62266
lhand -17.7676 23.0962
lfingers 7.12502
lthumb 8.49463 52.9053
rfemur -15.8737 4.11959 21.8752
rtibia 28.5327
rfoot -13.8325 -9.74334
rtoes -0.822254
lfemur -17.1423 -1.96219 -19.0386
ltibia 30.522
lfoot -17.2004 4.63433
ltoes 1.93636
